<mxfile host="Electron" modified="2023-10-21T15:02:40.219Z" agent="Mozilla/5.0 (Windows NT 10.0; Win64; x64) AppleWebKit/537.36 (KHTML, like Gecko) draw.io/22.0.2 Chrome/114.0.5735.289 Electron/25.8.4 Safari/537.36" etag="jaqWtc7uHM3ItwptPYlw" version="22.0.2" type="device">
  <diagram name="Page-1" id="2YBvvXClWsGukQMizWep">
    <mxGraphModel dx="1462" dy="721" grid="1" gridSize="10" guides="1" tooltips="1" connect="1" arrows="1" fold="1" page="1" pageScale="1" pageWidth="850" pageHeight="1100" math="0" shadow="0">
      <root>
        <mxCell id="0" />
        <mxCell id="1" parent="0" />
        <mxCell id="SB4TEwUQo2XcKW8rI5Qr-15" value="" style="rounded=0;whiteSpace=wrap;html=1;" vertex="1" parent="1">
          <mxGeometry x="335" y="180" width="10" height="290" as="geometry" />
        </mxCell>
        <mxCell id="SB4TEwUQo2XcKW8rI5Qr-1" value="User" style="shape=umlActor;verticalLabelPosition=bottom;verticalAlign=top;html=1;outlineConnect=0;" vertex="1" parent="1">
          <mxGeometry x="70" y="90" width="30" height="60" as="geometry" />
        </mxCell>
        <mxCell id="SB4TEwUQo2XcKW8rI5Qr-2" value=":System" style="rounded=0;whiteSpace=wrap;html=1;" vertex="1" parent="1">
          <mxGeometry x="280" y="110" width="120" height="60" as="geometry" />
        </mxCell>
        <mxCell id="SB4TEwUQo2XcKW8rI5Qr-3" value=":Database" style="rounded=0;whiteSpace=wrap;html=1;" vertex="1" parent="1">
          <mxGeometry x="559" y="110" width="120" height="60" as="geometry" />
        </mxCell>
        <mxCell id="SB4TEwUQo2XcKW8rI5Qr-4" value="" style="endArrow=none;dashed=1;html=1;rounded=0;entryX=0.5;entryY=1;entryDx=0;entryDy=0;" edge="1" parent="1" source="SB4TEwUQo2XcKW8rI5Qr-40" target="SB4TEwUQo2XcKW8rI5Qr-3">
          <mxGeometry width="50" height="50" relative="1" as="geometry">
            <mxPoint x="620" y="480" as="sourcePoint" />
            <mxPoint x="640" y="230" as="targetPoint" />
          </mxGeometry>
        </mxCell>
        <mxCell id="SB4TEwUQo2XcKW8rI5Qr-5" value="" style="endArrow=none;dashed=1;html=1;rounded=0;" edge="1" parent="1" source="SB4TEwUQo2XcKW8rI5Qr-15" target="SB4TEwUQo2XcKW8rI5Qr-2">
          <mxGeometry width="50" height="50" relative="1" as="geometry">
            <mxPoint x="339.52" y="581.5237862723214" as="sourcePoint" />
            <mxPoint x="339.52" y="170" as="targetPoint" />
          </mxGeometry>
        </mxCell>
        <mxCell id="SB4TEwUQo2XcKW8rI5Qr-6" value="" style="endArrow=none;dashed=1;html=1;rounded=0;" edge="1" parent="1" source="SB4TEwUQo2XcKW8rI5Qr-35">
          <mxGeometry width="50" height="50" relative="1" as="geometry">
            <mxPoint x="85" y="360" as="sourcePoint" />
            <mxPoint x="85" y="170" as="targetPoint" />
          </mxGeometry>
        </mxCell>
        <mxCell id="SB4TEwUQo2XcKW8rI5Qr-7" value="" style="rounded=0;whiteSpace=wrap;html=1;" vertex="1" parent="1">
          <mxGeometry x="80" y="180" width="10" height="50" as="geometry" />
        </mxCell>
        <mxCell id="SB4TEwUQo2XcKW8rI5Qr-8" value="" style="endArrow=classic;html=1;rounded=0;exitX=1;exitY=0.25;exitDx=0;exitDy=0;entryX=-0.057;entryY=0.046;entryDx=0;entryDy=0;entryPerimeter=0;" edge="1" parent="1">
          <mxGeometry width="50" height="50" relative="1" as="geometry">
            <mxPoint x="90" y="204.5" as="sourcePoint" />
            <mxPoint x="334.42999999999995" y="203.96000000000004" as="targetPoint" />
          </mxGeometry>
        </mxCell>
        <mxCell id="SB4TEwUQo2XcKW8rI5Qr-9" value="Enter order ID" style="text;html=1;align=center;verticalAlign=middle;resizable=0;points=[];autosize=1;strokeColor=none;fillColor=none;" vertex="1" parent="1">
          <mxGeometry x="150" y="179" width="100" height="30" as="geometry" />
        </mxCell>
        <mxCell id="SB4TEwUQo2XcKW8rI5Qr-16" value="" style="endArrow=none;dashed=1;html=1;rounded=0;" edge="1" parent="1" source="SB4TEwUQo2XcKW8rI5Qr-36" target="SB4TEwUQo2XcKW8rI5Qr-15">
          <mxGeometry width="50" height="50" relative="1" as="geometry">
            <mxPoint x="340" y="480" as="sourcePoint" />
            <mxPoint x="340" y="170" as="targetPoint" />
          </mxGeometry>
        </mxCell>
        <mxCell id="SB4TEwUQo2XcKW8rI5Qr-28" value="" style="endArrow=open;endSize=12;dashed=1;html=1;rounded=0;exitX=0.949;exitY=0.122;exitDx=0;exitDy=0;exitPerimeter=0;entryX=1.06;entryY=0.101;entryDx=0;entryDy=0;entryPerimeter=0;" edge="1" parent="1">
          <mxGeometry width="160" relative="1" as="geometry">
            <mxPoint x="332.86" y="303.88" as="sourcePoint" />
            <mxPoint x="94.80000000000007" y="303.03999999999996" as="targetPoint" />
          </mxGeometry>
        </mxCell>
        <mxCell id="SB4TEwUQo2XcKW8rI5Qr-33" value="" style="endArrow=classic;html=1;rounded=0;exitX=0.988;exitY=0.221;exitDx=0;exitDy=0;exitPerimeter=0;" edge="1" parent="1">
          <mxGeometry width="50" height="50" relative="1" as="geometry">
            <mxPoint x="343.8799999999999" y="230.46000000000004" as="sourcePoint" />
            <mxPoint x="610" y="230" as="targetPoint" />
          </mxGeometry>
        </mxCell>
        <mxCell id="SB4TEwUQo2XcKW8rI5Qr-34" value="Request Order information" style="text;html=1;align=center;verticalAlign=middle;resizable=0;points=[];autosize=1;strokeColor=none;fillColor=none;" vertex="1" parent="1">
          <mxGeometry x="388" y="205" width="160" height="30" as="geometry" />
        </mxCell>
        <mxCell id="SB4TEwUQo2XcKW8rI5Qr-36" value="" style="shape=umlDestroy;whiteSpace=wrap;html=1;strokeWidth=3;targetShapes=umlLifeline;" vertex="1" parent="1">
          <mxGeometry x="325" y="500" width="30" height="30" as="geometry" />
        </mxCell>
        <mxCell id="SB4TEwUQo2XcKW8rI5Qr-37" value="" style="shape=umlDestroy;whiteSpace=wrap;html=1;strokeWidth=3;targetShapes=umlLifeline;" vertex="1" parent="1">
          <mxGeometry x="604" y="500" width="30" height="30" as="geometry" />
        </mxCell>
        <mxCell id="SB4TEwUQo2XcKW8rI5Qr-41" value="" style="endArrow=none;dashed=1;html=1;rounded=0;entryX=1;entryY=0.5;entryDx=0;entryDy=0;" edge="1" parent="1" source="SB4TEwUQo2XcKW8rI5Qr-37" target="SB4TEwUQo2XcKW8rI5Qr-40">
          <mxGeometry width="50" height="50" relative="1" as="geometry">
            <mxPoint x="620" y="465" as="sourcePoint" />
            <mxPoint x="619" y="170" as="targetPoint" />
          </mxGeometry>
        </mxCell>
        <mxCell id="SB4TEwUQo2XcKW8rI5Qr-40" value="" style="rounded=0;whiteSpace=wrap;html=1;rotation=90;" vertex="1" parent="1">
          <mxGeometry x="596.07" y="233.69" width="45.87" height="10" as="geometry" />
        </mxCell>
        <mxCell id="SB4TEwUQo2XcKW8rI5Qr-49" value="Return Order details" style="text;html=1;align=center;verticalAlign=middle;resizable=0;points=[];autosize=1;strokeColor=none;fillColor=none;" vertex="1" parent="1">
          <mxGeometry x="155" y="281" width="130" height="30" as="geometry" />
        </mxCell>
        <mxCell id="SB4TEwUQo2XcKW8rI5Qr-51" value="" style="endArrow=open;endSize=12;dashed=1;html=1;rounded=0;" edge="1" parent="1">
          <mxGeometry width="160" relative="1" as="geometry">
            <mxPoint x="610" y="250" as="sourcePoint" />
            <mxPoint x="350" y="250" as="targetPoint" />
          </mxGeometry>
        </mxCell>
        <mxCell id="SB4TEwUQo2XcKW8rI5Qr-52" value="Return Order information" style="text;html=1;align=center;verticalAlign=middle;resizable=0;points=[];autosize=1;strokeColor=none;fillColor=none;" vertex="1" parent="1">
          <mxGeometry x="386.17" y="225.63" width="160" height="30" as="geometry" />
        </mxCell>
        <mxCell id="SB4TEwUQo2XcKW8rI5Qr-61" value="" style="endArrow=none;dashed=1;html=1;rounded=0;" edge="1" parent="1" target="SB4TEwUQo2XcKW8rI5Qr-35">
          <mxGeometry width="50" height="50" relative="1" as="geometry">
            <mxPoint x="85" y="360" as="sourcePoint" />
            <mxPoint x="85" y="170" as="targetPoint" />
          </mxGeometry>
        </mxCell>
        <mxCell id="SB4TEwUQo2XcKW8rI5Qr-35" value="" style="shape=umlDestroy;whiteSpace=wrap;html=1;strokeWidth=3;targetShapes=umlLifeline;" vertex="1" parent="1">
          <mxGeometry x="70" y="500" width="30" height="30" as="geometry" />
        </mxCell>
        <mxCell id="SB4TEwUQo2XcKW8rI5Qr-62" value="ALT" style="shape=umlFrame;whiteSpace=wrap;html=1;pointerEvents=0;" vertex="1" parent="1">
          <mxGeometry x="-10" y="267" width="700" height="130" as="geometry" />
        </mxCell>
        <mxCell id="SB4TEwUQo2XcKW8rI5Qr-63" value="Order Found" style="text;html=1;align=center;verticalAlign=middle;resizable=0;points=[];autosize=1;strokeColor=none;fillColor=none;" vertex="1" parent="1">
          <mxGeometry x="-10" y="300" width="90" height="30" as="geometry" />
        </mxCell>
        <mxCell id="SB4TEwUQo2XcKW8rI5Qr-64" value="Order Not &lt;br&gt;Found" style="text;html=1;align=center;verticalAlign=middle;resizable=0;points=[];autosize=1;strokeColor=none;fillColor=none;" vertex="1" parent="1">
          <mxGeometry x="-3" y="348" width="80" height="40" as="geometry" />
        </mxCell>
        <mxCell id="SB4TEwUQo2XcKW8rI5Qr-65" value="" style="endArrow=none;dashed=1;html=1;rounded=0;exitX=-0.002;exitY=0.55;exitDx=0;exitDy=0;exitPerimeter=0;entryX=1.009;entryY=0.532;entryDx=0;entryDy=0;entryPerimeter=0;" edge="1" parent="1" source="SB4TEwUQo2XcKW8rI5Qr-62" target="SB4TEwUQo2XcKW8rI5Qr-62">
          <mxGeometry width="50" height="50" relative="1" as="geometry">
            <mxPoint x="160" y="390" as="sourcePoint" />
            <mxPoint x="210" y="340" as="targetPoint" />
          </mxGeometry>
        </mxCell>
        <mxCell id="SB4TEwUQo2XcKW8rI5Qr-66" value="" style="endArrow=open;endSize=12;dashed=1;html=1;rounded=0;exitX=0.949;exitY=0.122;exitDx=0;exitDy=0;exitPerimeter=0;entryX=1.06;entryY=0.101;entryDx=0;entryDy=0;entryPerimeter=0;" edge="1" parent="1">
          <mxGeometry width="160" relative="1" as="geometry">
            <mxPoint x="329.86" y="373.88" as="sourcePoint" />
            <mxPoint x="91.80000000000007" y="373.03999999999996" as="targetPoint" />
          </mxGeometry>
        </mxCell>
        <mxCell id="SB4TEwUQo2XcKW8rI5Qr-67" value="Notify User" style="text;html=1;align=center;verticalAlign=middle;resizable=0;points=[];autosize=1;strokeColor=none;fillColor=none;" vertex="1" parent="1">
          <mxGeometry x="177" y="351" width="80" height="30" as="geometry" />
        </mxCell>
        <mxCell id="SB4TEwUQo2XcKW8rI5Qr-68" value="" style="rounded=0;whiteSpace=wrap;html=1;rotation=90;" vertex="1" parent="1">
          <mxGeometry x="26.03" y="327.03" width="117.94" height="10" as="geometry" />
        </mxCell>
      </root>
    </mxGraphModel>
  </diagram>
</mxfile>
